<?xml version="1.0" encoding="UTF-8" standalone="no"?>
<!-- Created with Inkscape (http://www.inkscape.org/) -->

<svg
   id="svg5"
   version="1.1"
   viewBox="0 0 246.94445 246.94445"
   height="700pt"
   width="700pt"
   sodipodi:docname="safari-pinned-tab.svg"
   inkscape:version="1.2.1 (9c6d41e410, 2022-07-14)"
   xmlns:inkscape="http://www.inkscape.org/namespaces/inkscape"
   xmlns:sodipodi="http://sodipodi.sourceforge.net/DTD/sodipodi-0.dtd"
   xmlns:xlink="http://www.w3.org/1999/xlink"
   xmlns="http://www.w3.org/2000/svg"
   xmlns:svg="http://www.w3.org/2000/svg">
  <sodipodi:namedview
     id="namedview7"
     pagecolor="#ffffff"
     bordercolor="#999999"
     borderopacity="1"
     inkscape:pageshadow="0"
     inkscape:pageopacity="0"
     inkscape:pagecheckerboard="0"
     inkscape:document-units="px"
     showgrid="false"
     inkscape:object-paths="true"
     inkscape:snap-intersection-paths="false"
     inkscape:object-nodes="false"
     inkscape:snap-midpoints="false"
     inkscape:snap-bbox="false"
     inkscape:snap-bbox-edge-midpoints="false"
     inkscape:bbox-paths="false"
     inkscape:bbox-nodes="false"
     inkscape:snap-nodes="true"
     inkscape:snap-others="false"
     inkscape:snap-center="false"
     inkscape:snap-object-midpoints="false"
     inkscape:zoom="0.7832031"
     inkscape:cx="541.3666"
     inkscape:cy="433.47632"
     inkscape:window-width="1920"
     inkscape:window-height="991"
     inkscape:window-x="-9"
     inkscape:window-y="-9"
     inkscape:window-maximized="1"
     inkscape:current-layer="layer1"
     inkscape:showpageshadow="2"
     inkscape:deskcolor="#d1d1d1" />
  <defs
     id="defs2">
    <linearGradient
       inkscape:collect="always"
       id="linearGradient2773">
      <stop
         style="stop-color:#8eacac;stop-opacity:1"
         offset="0"
         id="stop2769" />
      <stop
         style="stop-color:#f4fdfd;stop-opacity:1"
         offset="1"
         id="stop2771" />
    </linearGradient>
    <linearGradient
       inkscape:collect="always"
       xlink:href="#linearGradient2773"
       id="linearGradient2775"
       x1="49.997673"
       y1="110.13001"
       x2="109.9611"
       y2="50.166588"
       gradientUnits="userSpaceOnUse" />
  </defs>
  <g
     inkscape:label="Camada 1"
     inkscape:groupmode="layer"
     id="layer1">
    <g
       id="g37816"
       transform="matrix(3.1514051,0,0,3.1514051,-89.983006,-89.982943)">
      <circle
         style="fill:url(#linearGradient2775);fill-opacity:1;stroke:none;stroke-width:0.661458;stroke-linecap:round;stroke-linejoin:round;stroke-miterlimit:4;stroke-dasharray:none;stroke-opacity:1;paint-order:markers fill stroke;stop-color:#000000"
         id="path846"
         cx="67.733337"
         cy="67.733337"
         r="38.849545" />
      <path
         id="path9691"
         style="fill:#ffffff;fill-opacity:0.35;stroke:#7eb3b3;stroke-width:0.661458;stroke-linecap:round;stroke-linejoin:round;stroke-miterlimit:4;stroke-dasharray:none;stroke-opacity:0.75;paint-order:markers fill stroke;stop-color:#000000"
         d="m 73.983082,35.133257 a 32.599835,32.599835 0 0 0 -2.409156,0.08992 C 65.738223,44.9493 62.110566,50.9949 57.561347,58.576792 a 10.684777,10.684777 0 0 1 1.059883,0.730187 C 64.959885,51.157416 69.857317,44.86096 77.277457,35.320841 a 32.599835,32.599835 0 0 0 -3.294375,-0.187584 z m -7.498766,0.88315 a 32.599835,32.599835 0 0 0 -4.286562,1.326534 c -3.031569,9.094647 -4.762511,14.287664 -6.754109,20.262329 a 10.684777,10.684777 0 0 1 1.043348,0.404627 c 3.090881,-6.799741 5.658043,-12.447132 9.997323,-21.99349 z M 83.292076,36.5094 C 74.29664,45.504794 67.982795,51.818824 59.623237,60.17824 a 10.684777,10.684777 0 0 1 0.87023,1.00149 C 70.921392,53.069264 78.64548,47.061923 89.145464,38.895301 A 32.599835,32.599835 0 0 0 83.292076,36.5094 Z m -24.584031,2.449462 a 32.599835,32.599835 0 0 0 -2.763139,1.634011 c -1.11149,7.780383 -1.722607,12.059476 -2.367296,16.57263 a 10.684777,10.684777 0 0 1 0.890384,0.165884 c 1.197052,-5.187101 2.287096,-9.909779 4.240051,-18.372525 z m -4.935614,3.201874 a 32.599835,32.599835 0 0 0 -1.704806,1.452623 v 13.435357 a 10.684777,10.684777 0 0 1 0.710034,0.03049 c 0.263342,-3.94916 0.521279,-7.816239 0.994772,-14.918468 z m 40.622327,0.176215 C 82.483399,49.483723 73.535526,54.852368 61.224172,62.239098 a 10.684777,10.684777 0 0 1 0.566891,1.074351 C 75.642266,57.017403 85.483715,52.543944 98.724725,46.525327 a 32.599835,32.599835 0 0 0 -4.329967,-4.188376 z m -43.836602,2.749704 a 32.599835,32.599835 0 0 0 -1.4888,1.653646 c 0.722101,5.054658 1.117759,7.824536 1.500685,10.505302 a 10.684777,10.684777 0 0 1 0.791684,-0.10387 c -0.206357,-3.09545 -0.417073,-6.257618 -0.803569,-12.055078 z m -2.914552,3.474723 A 32.599835,32.599835 0 0 0 46.32844,50.51423 c 1.149215,3.447672 1.76136,5.284198 2.38125,7.14375 a 10.684777,10.684777 0 0 1 0.965316,-0.294555 c -0.519893,-2.252684 -1.052901,-4.561901 -2.031402,-8.802047 z m 54.345526,2.531628 C 87.510231,55.919268 77.163921,59.368162 62.196206,64.357312 a 10.684777,10.684777 0 0 1 0.272852,0.975652 C 78.148664,61.714633 88.659403,59.288975 104.25204,55.69066 a 32.599835,32.599835 0 0 0 -2.26291,-4.597654 z m -56.825995,1.451076 a 32.599835,32.599835 0 0 0 -0.985985,2.039667 c 1.166373,1.943968 1.711941,2.853585 2.403988,4.006991 a 10.684777,10.684777 0 0 1 1.10019,-0.506429 c -0.679611,-1.495139 -1.299892,-2.859958 -2.518193,-5.540229 z m -1.784903,4.017841 a 32.599835,32.599835 0 0 0 -0.625803,1.856734 c 0.858846,0.858848 1.155893,1.156378 1.759585,1.760101 a 10.684777,10.684777 0 0 1 1.051613,-0.807188 c -0.677135,-0.870614 -1.122013,-1.442434 -2.185395,-2.809647 z m 62.274238,3.516582 c -16.545138,2.363602 -26.966157,3.852379 -43.017016,6.145361 a 10.684777,10.684777 0 0 1 0.0863,0.799436 c 16.164309,-1.077675 26.335792,-1.756103 43.650566,-2.910417 a 32.599835,32.599835 0 0 0 -0.71985,-4.03438 z m -63.358926,0.05323 a 32.599835,32.599835 0 0 0 -0.319879,1.545643 c 0.466492,0.279895 0.562089,0.337251 0.950849,0.570508 a 10.684777,10.684777 0 0 1 0.780831,-1.018027 c -0.524733,-0.408133 -0.72089,-0.560744 -1.411801,-1.098124 z M 41.729238,63.0344 a 32.599835,32.599835 0 0 0 -0.136427,1.20768 c 0.197014,0.06567 0.217162,0.07239 0.399976,0.133323 a 10.684777,10.684777 0 0 1 0.425296,-1.027842 C 42.120649,63.212361 42.06791,63.188345 41.729238,63.0344 Z m -0.254249,2.254644 a 32.599835,32.599835 0 0 0 -0.03514,0.926042 c 0.06944,0.0099 0.07291,0.01048 0.14056,0.02016 a 10.684777,10.684777 0 0 1 0.117821,-0.894519 c -0.105677,-0.02439 -0.113099,-0.02625 -0.223242,-0.05168 z m -0.06563,1.733743 a 32.599835,32.599835 0 0 0 -0.02636,0.710552 10.684777,10.684777 0 0 1 0.09302,-0.7059 c -0.03257,-0.0021 -0.03369,-0.0024 -0.06667,-0.0047 z m 21.343401,0.710552 a 10.684777,10.684777 0 0 1 -0.09302,0.7059 c 16.246851,1.083154 26.509841,1.767584 43.69863,2.913518 a 32.599835,32.599835 0 0 0 0.13281,-1.179256 38.849544,38.849544 0 0 0 0.0915,-2.440162 z m -21.276736,0.7059 c -0.03253,0.0021 -0.03374,0.0024 -0.06667,0.0047 a 32.599835,32.599835 0 0 0 0.03049,0.807702 c 0.06934,-0.0099 0.073,-0.0105 0.14056,-0.02016 a 10.684777,10.684777 0 0 1 -0.104386,-0.792199 z m 21.079333,0.7922 a 10.684777,10.684777 0 0 1 -0.117822,0.895035 c 15.756391,3.636047 26.381145,6.088055 41.832075,9.653675 A 32.599835,32.599835 0 0 0 105.65764,75.3892 C 89.234311,73.042988 78.713874,71.539872 62.555357,69.231435 Z m -20.857126,0.894519 c -0.105521,0.02434 -0.113268,0.0263 -0.223242,0.05168 a 32.599835,32.599835 0 0 0 0.117822,1.046964 c 0.196688,-0.06556 0.217437,-0.07248 0.399976,-0.133323 a 10.684777,10.684777 0 0 1 -0.294556,-0.965317 z m 20.444231,0.966349 a 10.684777,10.684777 0 0 1 -0.425297,1.027845 c 13.943219,6.337832 23.877707,10.853375 36.997741,16.81706 a 32.599835,32.599835 0 0 0 3.284034,-4.559927 C 87.65354,79.595445 77.199529,76.1112 62.142462,71.092303 Z m -19.724379,1.02681 c -0.296984,0.134994 -0.350774,0.159491 -0.688845,0.313161 a 32.599835,32.599835 0 0 0 0.244946,1.357538 c 0.465595,-0.279355 0.562665,-0.337601 0.950846,-0.570505 a 10.684777,10.684777 0 0 1 -0.506947,-1.100194 z m 18.792654,1.100709 a 10.684777,10.684777 0 0 1 -0.780833,1.017509 C 70.934336,82.40748 78.728725,88.47005 89.141331,96.56879 a 32.599835,32.599835 0 0 0 5.264796,-3.431833 C 82.619278,86.064804 73.575962,80.638988 61.210737,73.219822 Z M 43.70586,74.237331 c -0.524139,0.407656 -0.722672,0.561737 -1.412316,1.098124 a 32.599835,32.599835 0 0 0 0.458885,1.712558 c 0.856943,-0.856938 1.15705,-1.156563 1.760101,-1.759583 a 10.684777,10.684777 0 0 1 -0.80667,-1.051099 z m 15.916858,1.051615 a 10.684777,10.684777 0 0 1 -1.051616,0.80667 c 6.391315,8.217522 11.328149,14.565228 18.70532,24.050214 A 32.599835,32.599835 0 0 0 83.29776,98.963988 C 74.387058,90.053244 68.011671,83.67804 59.622718,75.288946 Z M 45.563627,76.0951 c -0.676717,0.870082 -1.124408,1.446046 -2.185395,2.810163 a 32.599835,32.599835 0 0 0 0.798918,1.978174 c 1.163619,-1.939351 1.712571,-2.854283 2.404504,-4.007507 A 10.684777,10.684777 0 0 1 45.563627,76.0951 Z m 11.989451,0.781346 a 10.684777,10.684777 0 0 1 -1.099158,0.506429 c 3.118763,6.861386 5.703517,12.548216 10.030396,22.067388 A 32.599835,32.599835 0 0 0 71.57341,100.2435 C 65.776821,90.582461 62.121078,84.489821 57.553078,76.876446 Z m -9.87175,0.505913 c -0.679743,1.495457 -1.303208,2.86676 -2.518193,5.539713 a 32.599835,32.599835 0 0 0 1.164789,2.029849 c 1.14605,-3.43813 1.761035,-5.282779 2.38125,-7.14375 a 10.684777,10.684777 0 0 1 -1.027846,-0.425812 z m 7.744749,0.426331 a 10.684777,10.684777 0 0 1 -0.965317,0.294555 c 1.203323,5.21461 2.299698,9.965034 4.247285,18.404563 a 32.599835,32.599835 0 0 0 3.489709,1.615921 C 59.174286,89.053275 57.432082,83.826699 55.426077,77.80869 Z m -5.751589,0.294555 c -0.52038,2.255039 -1.055238,4.573765 -2.030884,8.801529 a 32.599835,32.599835 0 0 0 1.425236,1.821079 c 0.719971,-5.039746 1.117235,-7.820493 1.500685,-10.504786 a 10.684777,10.684777 0 0 1 -0.895037,-0.117822 z m 3.891753,0.117306 a 10.684777,10.684777 0 0 1 -0.792199,0.104386 c 0.265324,3.97972 0.525007,7.873082 0.998905,14.981516 a 32.599835,32.599835 0 0 0 2.172478,1.567344 c -1.11261,-7.788191 -1.728272,-12.09683 -2.379184,-16.653246 z m -2.205035,0.104386 c -0.206734,3.099956 -0.418211,6.274303 -0.803568,12.054562 a 32.599835,32.599835 0 0 0 1.509987,1.473812 V 78.417954 a 10.684777,10.684777 0 0 1 -0.706419,-0.09302 z" />
      <path
         style="fill:#92c053;fill-opacity:1;stroke:#78a042;stroke-width:0.661458;stroke-linecap:round;stroke-linejoin:round;stroke-miterlimit:4;stroke-dasharray:none;stroke-opacity:1;paint-order:markers fill stroke;stop-color:#000000"
         d="m 93.433058,74.139146 c -0.298373,-0.0032 -0.596815,-0.0024 -0.895551,0.0031 -1.064731,0.0268 -1.366816,0.02172 -2.429309,0.09974 -1.612363,0.118372 -3.216188,0.340995 -4.80436,0.641305 -2.320549,0.473644 -4.624885,1.037963 -6.859529,1.831411 -2.149861,0.773991 -4.263636,1.639226 -6.328296,2.619997 -1.379009,0.652304 -2.751887,1.315776 -4.093806,2.042253 -1.560949,0.953294 -3.094649,1.950357 -4.583184,3.014284 -1.763869,1.267055 -3.506864,2.564019 -5.178494,3.951698 -1.496793,1.265663 -2.961309,2.572332 -4.297931,4.009059 -0.19226,0.209193 -0.380492,0.42182 -0.56999,0.633553 a 32.599835,32.599835 0 0 0 20.590474,7.347874 32.599835,32.599835 0 0 0 31.506608,-24.266741 c -1.90586,-0.595905 -3.84542,-1.080201 -5.821868,-1.38131 -2.066356,-0.29837 -4.14614,-0.523658 -6.234764,-0.546219 z"
         id="path16262" />
      <path
         style="fill:#78a53b;fill-opacity:1;stroke:#699232;stroke-width:0.661458;stroke-linecap:round;stroke-linejoin:round;stroke-miterlimit:4;stroke-dasharray:none;stroke-opacity:1;paint-order:markers fill stroke;stop-color:#000000"
         d="m 46.116567,78.680447 c -0.930918,1.11e-4 -1.861506,0.03761 -2.789495,0.108521 a 32.599835,32.599835 0 0 0 30.65601,21.544422 32.599835,32.599835 0 0 0 6.324164,-0.630971 c -0.11374,-0.252135 -0.230537,-0.502756 -0.350367,-0.751891 -0.95054,-1.872752 -2.012019,-3.690008 -3.238564,-5.397087 -0.236214,-0.313055 -0.465087,-0.631452 -0.708482,-0.938961 -1.290569,-1.630532 -2.758459,-3.115578 -4.305681,-4.501534 -0.850136,-0.730435 -1.152073,-1.008848 -2.042253,-1.697053 -1.445734,-1.117706 -2.976126,-2.12421 -4.574397,-3.010152 -1.053508,-0.564668 -1.412926,-0.777316 -2.500623,-1.280027 -1.692383,-0.78218 -3.451743,-1.415394 -5.244123,-1.925979 -0.44677,-0.116155 -0.89176,-0.239977 -1.340488,-0.3483 -2.250787,-0.543344 -4.547701,-0.882055 -6.855397,-1.059884 -0.464862,-0.02609 -0.929002,-0.06008 -1.39423,-0.07855 -0.544938,-0.02164 -1.09049,-0.03262 -1.636074,-0.03256 z"
         id="path15423" />
      <circle
         style="fill:#ffdc56;fill-opacity:1;stroke:#967f2b;stroke-width:1.19063;stroke-linecap:round;stroke-linejoin:round;stroke-miterlimit:4;stroke-dasharray:none;stroke-opacity:1;paint-order:markers fill stroke;stop-color:#000000"
         id="circle4224"
         cx="52.06778"
         cy="67.733337"
         r="10.684777" />
      <path
         style="fill:#554939;fill-opacity:1;stroke:#29231b;stroke-width:0.661458;stroke-linecap:round;stroke-linejoin:round;stroke-miterlimit:4;stroke-dasharray:none;stroke-opacity:1;paint-order:markers fill stroke;stop-color:#000000"
         d="M 67.733335,28.884026 A 38.849544,38.849544 0 0 0 28.884026,67.733335 38.849544,38.849544 0 0 0 67.733335,106.58264 38.849544,38.849544 0 0 0 106.49169,70.170912 32.599835,32.599835 0 0 1 73.983082,100.33341 32.599835,32.599835 0 0 1 41.383004,67.733335 32.599835,32.599835 0 0 1 73.983082,35.133257 32.599835,32.599835 0 0 1 106.57231,66.891526 38.849544,38.849544 0 0 0 67.733335,28.884026 Z"
         id="path846-9" />
      <path
         id="path22848"
         style="fill:#000000;fill-opacity:0.35;stroke:#29231b;stroke-width:2.5;stroke-miterlimit:4;stroke-dasharray:none;stroke-opacity:1"
         d="m 255.45312,111.42969 c -0.59793,0.001 -0.90515,0.17457 -1.71679,0.76172 -0.94404,0.66772 -1.54141,0.89754 -3.19922,1.17382 -2.9703,0.52959 -3.20179,0.64458 -3.01758,1.51954 0.1842,0.87495 0.96775,1.79687 1.56641,1.79687 0.23023,0 0.41406,0.0923 0.41406,0.23047 0,0.11513 0.64529,1.01187 1.45117,2.00195 2.37159,2.9242 4.12103,5.68668 4.88086,7.71289 0.23026,0.62168 0.48449,1.10547 0.59961,1.10547 0.0921,0 0.39012,-0.68949 0.68945,-1.56445 1.12824,-3.43075 2.5557,-5.71073 6.10157,-9.625 l 2.4414,-2.7168 -0.50586,-0.41406 c -0.41445,-0.34536 -0.94468,-0.41602 -2.76367,-0.41602 -2.04924,0 -2.34844,-0.0678 -3.5918,-0.68945 -0.8289,-0.43747 -1.86516,-0.76099 -2.625,-0.83008 -0.29357,-0.0288 -0.52527,-0.0472 -0.72461,-0.0469 z m 22.41407,2.51172 c -4.97344,0.0921 -7.80551,1.22016 -11.9961,4.78906 -4.88133,4.16756 -6.63108,7.43592 -6.86132,12.80078 -0.01,0.25353 0.0169,0.45496 0.0137,0.69727 2.47126,-0.40856 4.96478,-0.75193 7.48242,-1.01368 0.0593,-0.12954 0.0739,-0.22397 0.14844,-0.37304 0.5526,-1.12824 0.87462,-1.47463 1.72656,-1.91211 2.02621,-1.01311 4.23791,-0.52891 5.08984,1.1289 0.11401,0.22801 0.14545,0.42116 0.21094,0.61914 1.96779,-0.0918 3.94711,-0.14454 5.9375,-0.14453 0.9634,0 1.92101,0.0209 2.87891,0.043 -0.42282,-0.76819 -0.95219,-1.55132 -1.61328,-2.38281 -1.51968,-1.88806 -2.02713,-2.71702 -1.79688,-2.94727 0.25327,-0.2763 2.21128,0.94423 2.99414,1.86524 0.63178,0.73005 1.35115,2.07275 2.02149,3.51172 4.81321,0.17266 9.55518,0.61812 14.20898,1.32812 -0.40423,-0.98918 -1.38386,-2.19636 -3.19922,-4.01172 -2.71697,-2.69394 -5.82424,-4.88101 -8.33398,-5.87109 -1.77294,-0.69076 -3.13218,-1.70274 -2.87891,-2.11719 0.29933,-0.48352 3.38359,0.43666 6.69922,2.02539 1.79596,0.87496 2.71706,1.49627 4.25977,2.92383 2.50974,2.30252 4.14446,4.07613 4.90429,5.27344 0.66773,1.08218 1.93421,1.79567 3.82227,2.16406 3.01629,0.57563 5.02112,0.0923 7.94531,-1.8418 1.63479,-1.1052 3.82227,-3.19965 3.82227,-3.66015 0,-0.41445 -1.19819,-0.87645 -2.99414,-1.17578 -4.90439,-0.80588 -6.95298,-1.54261 -12.17969,-4.4668 -5.06554,-2.8321 -8.01355,-4.32743 -9.53321,-4.83398 -2.00319,-0.66776 -7.39194,-1.95726 -9.21093,-2.1875 -0.99009,-0.13817 -2.6013,-0.23047 -3.56836,-0.23047 z m -45.35938,1.14648 c -2.89159,0.0661 -6.22027,0.62782 -9.87695,1.68555 -3.26956,0.94402 -5.64272,1.8418 -10.33984,3.91406 -3.01629,1.31243 -7.96609,3.17667 -12.17969,4.53516 -0.73678,0.25327 -1.45075,0.57712 -1.54297,0.73828 -1.03612,1.63478 1.91192,6.03212 4.62891,6.95312 1.54269,0.50653 4.32829,0.78299 5.75585,0.55274 1.95718,-0.29933 3.315,-1.24332 7.59766,-5.3418 5.31882,-5.11159 7.92205,-7.06836 9.34961,-7.06836 0.69075,0 0.32193,0.45897 -1.6582,2.09375 -3.70708,3.06235 -6.9089,6.74624 -8.47461,9.80859 l -0.6211,1.19727 0.5293,0.92187 c 1.54269,2.6249 2.62613,4.2127 3.01758,4.41993 0.2993,0.16116 1.19608,0.16116 2.87695,0 4.60502,-0.4605 5.43501,-1.01168 6.49414,-4.28125 0.82889,-2.57882 1.72693,-4.39842 2.94727,-6.03321 0.92098,-1.24335 3.22287,-3.22397 3.45312,-2.9707 0.0691,0.0691 -0.73576,1.4969 -1.79492,3.17773 -1.05916,1.68086 -2.096,3.5682 -2.32617,4.2129 -0.84157,2.45152 -0.26997,5.00086 1.26367,6.46093 3.62351,-1.5032 7.33193,-2.84589 11.11719,-4.00976 -0.20239,-0.35418 -0.90164,-0.94986 -1.62891,-1.39063 -1.54268,-0.921 -2.1875,-1.91186 -2.1875,-3.3164 0,-2.67094 3.27077,-4.21333 5.41211,-2.60157 1.46443,1.13442 2.2428,3.72668 2.03711,6.25782 2.43248,-0.66774 4.89376,-1.26659 7.38281,-1.78907 -0.24768,-2.24223 -0.80549,-5.0488 -1.29296,-6.33398 -0.6447,-1.74991 -2.5777,-4.58119 -4.18946,-6.16992 -2.30252,-2.25647 -7.09212,-4.44534 -11.58203,-5.32032 -0.91525,-0.17268 -1.90204,-0.27199 -2.95508,-0.30078 -0.39489,-0.0108 -0.7998,-0.0114 -1.21289,-0.002 z M 188.375,133.06055 c -6.09909,0.0376 -11.95039,2.04213 -16.81445,5.83984 -1.12823,0.89799 -2.41719,1.8643 -2.8086,2.14063 -0.41438,0.29932 -0.75976,0.6912 -0.75976,0.89843 0,0.20723 -0.29947,0.89826 -0.66797,1.54297 -0.89798,1.58874 -2.09681,5.43421 -2.25781,7.32227 -0.25331,2.76302 0.76082,8.4734 1.91211,10.91406 0.66772,1.40454 3.31486,4.2581 5.41015,5.80078 2.39463,1.79596 6.53959,2.9705 11.25977,3.17774 1.44578,0.0737 2.77122,0.0531 4.08594,-0.0977 7.36683,-7.92236 15.74401,-14.89127 24.92773,-20.70117 -1.10323,-0.29105 -2.32257,-0.50679 -3.57031,-0.52149 h -1.58985 l -1.63476,1.65821 c -0.89798,0.921 -2.34812,2.66987 -3.2461,3.86718 -1.7269,2.34857 -4.7663,5.68785 -5.89453,6.47071 -0.41446,0.29934 -0.76008,0.41353 -0.89844,0.27539 -0.23024,-0.23026 0.32265,-1.05899 3.17774,-4.78906 2.41765,-3.20052 3.75391,-5.75645 3.75391,-7.20704 0,-1.35848 -0.83027,-2.80776 -2.69532,-4.83398 l -1.33398,-1.45117 -2.32617,0.7832 c -2.74001,0.94404 -3.22421,1.17417 -4.07618,1.95703 -0.75983,0.73681 -1.21862,2.164 -1.54101,4.9961 -0.13807,1.12823 -0.34642,2.57795 -0.48438,3.22265 -0.7138,3.10841 -3.56979,7.04714 -5.9414,8.15235 -0.64468,0.32234 -1.24334,0.48315 -1.3125,0.41406 -0.0921,-0.0921 0.66896,-1.01352 1.70508,-2.0957 1.33545,-1.38154 2.07281,-2.39491 2.64843,-3.61524 1.10521,-2.27949 2.00196,-5.0424 2.00196,-6.10156 0,-1.31244 -0.89708,-2.64684 -2.34766,-3.42969 -1.68087,-0.92099 -4.51428,-1.08292 -6.40234,-0.36914 -1.77294,0.66773 -3.10755,1.70421 -3.66016,2.85547 -0.71369,1.54268 -0.71411,2.04803 0.0918,2.43945 3.10839,1.58874 3.6159,2.32568 3.10937,4.69727 -0.43748,2.14134 -1.59014,3.15625 -3.57031,3.15625 -1.9341,0 -3.98299,-1.58965 -4.99609,-3.86914 -0.73671,-1.65781 -0.82911,-4.65111 -0.23047,-6.6543 1.19731,-3.91428 4.5601,-7.50708 8.68164,-9.21094 3.20046,-1.35848 8.84161,-1.67923 13.19336,-0.78125 2.92422,0.59866 3.2011,0.68928 10.17773,3.40625 3.1084,1.19731 6.14592,2.34899 6.76758,2.53321 0.62169,0.18419 2.74053,1.03714 4.7207,1.9121 0.25582,0.11078 0.47414,0.19033 0.72266,0.29493 2.62995,-1.56234 5.32114,-3.03133 8.07031,-4.40235 -2.41909,-0.75721 -5.56436,-1.95797 -10.88867,-4.08984 -12.18032,-4.88134 -13.23821,-5.20369 -20.21484,-6.2168 -1.42469,-0.20291 -2.84643,-0.29968 -4.25391,-0.29101 z m 133.95508,0.94922 c -0.35364,-0.003 -0.71305,-0.003 -1.07813,0.002 -0.97353,0.0122 -1.98535,0.054 -3.02148,0.12305 -1.84929,0.13153 -3.72904,0.44394 -5.67774,0.86718 6.3282,1.75386 12.45185,3.99976 18.33399,6.69141 0.0518,0.0188 0.0971,0.0471 0.14844,0.0664 5.16397,2.37121 10.13827,5.08892 14.90039,8.11718 -0.64303,-2.60973 -1.88788,-5.0697 -3.71289,-7.17773 -3.7531,-4.32874 -7.57483,-6.60799 -13.60743,-8.0586 -1.6319,-0.39286 -3.8097,-0.60784 -6.28515,-0.63085 z m -160.23242,12.76562 c -0.44989,0.0321 -1.33679,0.68054 -2.39454,1.79492 -1.25605,1.32216 -2.09412,1.97525 -2.91992,2.24805 -1.88562,1.77928 -3.72982,3.60491 -5.51758,5.48242 -0.14985,1.12971 -0.28057,1.38017 -1.48632,2.58594 -1.15128,1.12823 -2.2793,2.76143 -2.2793,3.29101 0,0.0691 0.64335,0.0921 1.44922,0 3.33864,-0.34537 7.75953,-0.41342 9.60156,-0.16015 1.05914,0.13815 2.78657,0.52962 3.8457,0.875 1.03616,0.34538 1.95661,0.55151 2.04883,0.48242 0.0691,-0.0921 -0.13854,-0.91925 -0.46093,-1.86328 -0.94408,-2.71697 -1.35819,-5.80389 -1.38086,-10.33984 -0.0231,-2.32557 -0.13742,-4.18999 -0.2754,-4.32813 -0.0374,-0.0374 -0.087,-0.0587 -0.14648,-0.0664 -0.026,-0.003 -0.054,-0.004 -0.084,-0.002 z m 186.01367,1.54102 c -0.06,9.4e-4 -0.1026,0.0169 -0.13281,0.0469 -0.0691,0.0691 0.0244,0.6678 0.18554,1.3125 0.13099,0.52011 0.22959,1.15925 0.30469,1.85547 4.7084,3.15516 9.19487,6.62017 13.43359,10.36523 l 1.98633,0.0527 -0.4375,-0.64649 c -0.25327,-0.34537 -1.19577,-1.2894 -2.09375,-2.07226 -2.62485,-2.32554 -2.64754,-2.34814 -2.92383,-3.68359 -0.19567,-0.9063 -0.71552,-1.74959 -1.35351,-2.4336 -0.14076,-0.13925 -0.28447,-0.27539 -0.42578,-0.41406 -0.70474,-0.60597 -1.50889,-1.01953 -2.27344,-1.01953 -0.69076,0 -1.33681,-0.30072 -2.25781,-1.06055 -0.3684,-0.29933 -1.24326,-0.89805 -1.95703,-1.3125 -1.12248,-0.65621 -1.70119,-0.94855 -1.98829,-0.98633 -0.0239,-0.003 -0.0464,-0.004 -0.0664,-0.004 z m -193.14649,15.83593 c -0.72529,0 -1.47839,0.0648 -2.99804,0.19141 -4.62803,0.39143 -7.94489,2.07081 -11.62891,5.91602 -4.00637,4.16755 -6.19336,10.68399 -6.19336,18.55859 0,7.0457 0.9442,10.66192 5.57227,21.23047 5.91753,13.49274 7.34431,19.80128 5.84765,25.71875 -1.54269,6.10167 -5.04191,9.14025 -10.98242,9.55469 -4.02939,0.2763 -5.96289,-1.24227 -5.96289,-4.62696 0,-1.35849 0.0682,-1.5432 0.71289,-2.21093 1.6348,-1.63481 3.82328,-2.07212 5.29688,-1.08204 0.43748,0.29933 1.15083,0.92036 1.61132,1.38086 0.48356,0.46051 1.05966,0.85157 1.33594,0.85157 0.55264,0 2.14056,-1.56452 2.90039,-2.87696 0.7832,-1.33546 1.08293,-3.31577 0.80664,-5.13476 -0.29934,-1.77294 -0.66923,-2.55699 -1.61328,-3.33985 -2.21042,-1.86503 -6.93003,-0.50577 -11.41992,3.31641 -0.875,0.73681 -1.65778,1.35742 -1.75,1.35742 -0.80587,0 0.89883,-2.5309 2.55664,-3.82031 1.77294,-1.40453 3.38421,-2.21079 6.51563,-3.29297 4.88133,-1.68084 5.27387,-2.07194 5.73437,-5.87109 0.20674,-1.58874 0.20555,-2.37225 0.0215,-2.76368 -0.23024,-0.52958 -3.13033,-2.69371 -4.62695,-3.47656 -0.43748,-0.20722 -1.3585,-0.41406 -2.07226,-0.41406 -1.74992,-0.0461 -2.97066,0.68898 -5.80274,3.49805 -2.39463,2.39461 -4.46766,5.04411 -5.82617,7.50781 -0.48351,0.82891 -0.92107,1.47381 -0.99023,1.42773 -0.2072,-0.23025 0.62155,-2.90265 1.51953,-4.88281 1.19731,-2.57882 2.39523,-4.2365 5.5957,-7.73633 4.25957,-4.65108 3.96051,-4.12108 4.05273,-7.82812 0.11513,-4.25966 -0.16103,-5.24998 -1.95703,-6.88477 -0.71376,-0.66772 -1.77356,-1.42684 -2.32617,-1.70312 l -1.01367,-0.48438 -0.41406,0.50781 c -0.23025,0.2763 -0.68971,1.31071 -1.03516,2.30079 -1.56571,4.37478 -2.53332,6.63194 -4.2832,9.85546 -2.60187,4.83529 -4.46735,8.54202 -5.04297,10.01563 -1.77294,4.69713 -2.94588,13.28535 -2.32422,17.22266 0.99009,6.28587 4.92728,11.76634 10.24609,14.20703 3.4077,1.56569 4.69617,1.84179 8.88672,1.84179 4.23666,0 5.50405,-0.27495 8.56641,-1.88671 2.67092,-1.40455 6.69939,-5.52728 8.12695,-8.35938 1.45058,-2.87814 2.23438,-6.88366 2.23438,-11.51172 0,-2.5558 -0.13922,-3.73051 -0.71485,-6.67773 -1.2664,-6.17074 -2.39377,-9.6254 -5.73242,-17.5 -1.12823,-2.6479 -3.27083,-8.8875 -4.21484,-12.20313 -0.89802,-3.22352 -1.08079,-5.82417 -0.57422,-9.09375 1.1743,-7.55225 2.8306,-10.9142 6.67578,-13.53906 2.23344,-1.51967 3.33907,-1.84218 6.24023,-1.86523 3.08538,-0.023 4.0306,0.16049 4.97461,0.94335 0.96707,0.82891 2.04883,3.13206 2.04883,4.39844 0,0.82891 -0.13789,1.1274 -0.9668,2.02539 -1.54268,1.68084 -2.71811,2.07316 -4.0996,1.35938 -0.89798,-0.46051 -1.51945,-1.42811 -1.72657,-2.64844 -0.25326,-1.51966 -0.48361,-1.8418 -1.3125,-1.8418 -1.74992,0 -4.60512,2.1874 -5.45703,4.14453 -0.36858,0.87496 -0.5066,1.65867 -0.5293,2.99415 -0.023,4.92738 3.06251,6.79147 9.2793,5.61718 2.50976,-0.4605 3.66168,-1.10423 5.71094,-3.10742 0.94401,-0.921 1.77225,-1.54439 1.81836,-1.40625 0.18421,0.59866 -0.53082,1.98012 -1.70508,3.26953 -2.23347,2.39462 -3.82212,3.04074 -9.04883,3.57031 -4.72014,0.48354 -5.66392,0.71284 -6.30859,1.47266 -0.55264,0.66773 -3.26881,5.96342 -3.13086,6.10156 0.046,0.0461 1.01236,0.69052 2.14062,1.4043 3.33865,2.16437 5.2501,2.69394 7.4375,2.07227 4.53593,-1.28942 10.38562,-6.37803 12.94141,-11.23633 0.39141,-0.73681 0.85148,-1.49548 1.05859,-1.67969 0.18445,-0.20723 0.34571,-0.66872 0.34571,-1.03711 0,-0.36839 0.11519,-0.66797 0.23047,-0.66797 0.69074,0 -0.25477,3.24796 -1.61328,5.64258 -2.2795,3.98335 -6.28582,7.87461 -10.6836,10.36133 -1.58876,0.89798 -2.78613,2.0492 -3.38476,3.26953 -0.46062,0.94403 -0.48285,1.2895 -0.39063,3.82226 0.16116,3.59196 0.62086,4.85855 2.46289,6.88477 1.12823,1.19728 1.42761,1.40296 1.75,1.21875 0.23025,-0.13815 0.78403,-1.266 1.26758,-2.48633 1.49662,-3.82217 3.59138,-7.73509 5.20312,-9.73828 1.49666,-1.81899 5.27177,-7.30007 6.81446,-9.87891 0.4605,-0.75982 1.19728,-2.2557 1.63476,-3.33789 2.71699,-6.58519 0.92197,-16.60174 -3.98242,-22.17382 -1.10517,-1.26639 -3.43033,-2.85427 -5.31836,-3.66016 -1.24339,-0.52958 -2.18822,-0.71384 -4.1914,-0.875 -1.40455,-0.12663 -2.10088,-0.19141 -2.82618,-0.19141 z m 211.88477,2.35157 c 2.90572,2.85257 5.68357,5.83581 8.31055,8.95312 -0.36867,-0.81589 -0.74432,-1.57593 -1.125,-2.25781 -0.60133,-0.85729 -1.20326,-1.71498 -1.82227,-2.5586 -1.36741,-1.57929 -3.25759,-3.01991 -5.36328,-4.13671 z m -188.61133,9.35156 c -0.99008,0 -1.19761,0.093 -1.98047,0.92187 -1.1283,1.19731 -1.31279,1.91073 -0.7832,2.92383 0.62169,1.12824 1.65693,1.79492 2.78516,1.79492 0.17244,0 0.31464,-0.0367 0.46679,-0.0605 0.75869,-1.02468 1.53149,-2.03862 2.32032,-3.03907 0.0351,-0.56591 -0.20136,-1.01581 -0.82813,-1.64257 -0.78285,-0.78286 -1.0134,-0.89844 -1.98047,-0.89844 z m -64.125,67.92383 c -0.32235,0 -0.89916,2.64855 -1.03711,4.83593 -0.11512,1.51968 -0.32186,2.64747 -0.73633,3.6836 -0.9211,2.32553 -0.94369,3.13125 -0.0918,4.78906 0.64463,1.28941 0.71289,1.61133 0.71289,3.68359 0,2.16436 0.0472,2.37179 0.83008,3.9375 0.43748,0.89799 0.94407,1.63477 1.08203,1.63477 0.16116,0 0.78302,-0.71252 1.42773,-1.56445 2.46369,-3.31564 4.76469,-5.34212 8.74805,-7.75977 1.79595,-1.08218 3.10937,-2.11903 3.10937,-2.44141 0,-0.0691 -0.64488,-0.39164 -1.42773,-0.66796 -3.59191,-1.28941 -6.86209,-3.40742 -9.74024,-6.3086 -1.0131,-1.03612 -2.04912,-2.30287 -2.27929,-2.85547 -0.25319,-0.52958 -0.50544,-0.96679 -0.59766,-0.96679 z m 32.61524,8.78711 c -0.92618,0.0196 -1.84851,0.42252 -2.22266,1.11328 -0.39152,0.7368 -0.27606,2.57889 0.23047,3.38476 0.73682,1.1974 1.47406,1.5665 2.5332,1.24414 0.50657,-0.13815 1.26603,-0.6207 1.72656,-1.03515 0.64487,-0.62169 0.80469,-0.94443 0.80469,-1.65821 0,-1.03614 -0.57548,-2.02675 -1.51953,-2.64843 -0.44036,-0.28494 -0.99703,-0.41213 -1.55273,-0.40039 z m -12.875,5.07421 c -0.83179,0 -1.59586,0.0689 -2.58594,0.20704 -4.53596,0.66772 -8.08248,3.08584 -11.05274,7.55273 -1.63476,2.46369 -3.70732,6.6082 -3.9375,7.85156 -0.0691,0.43748 -0.27687,1.26575 -0.46093,1.81836 -0.23018,0.69076 -0.34571,2.16491 -0.34571,4.72071 -0.023,5.75628 0.55264,7.82927 4.58203,16.50976 3.63799,7.80553 5.06587,11.5807 6.125,15.97852 0.20712,0.89797 0.48396,1.77243 0.57618,1.93359 0.36842,0.55261 1.22049,6.1e-4 3.5,-2.25586 2.09529,-2.09529 2.2569,-2.32605 2.9707,-4.2832 0.59875,-1.63478 0.78125,-2.44034 0.78125,-3.79883 0.023,-1.58873 -0.0684,-1.88763 -0.94336,-3.68359 -0.71376,-1.42757 -1.61252,-2.67136 -3.31641,-4.60547 -4.62803,-5.22671 -7.11328,-8.63309 -7.11328,-9.73828 0,-0.18421 -0.27721,-0.82909 -0.59961,-1.42774 -0.55275,-1.05916 -0.62176,-2.1875 -0.11523,-2.1875 0.0921,0 0.5989,0.85058 1.10547,1.88672 1.28938,2.64788 3.45373,5.57343 6.21679,8.47461 2.62485,2.74 4.2367,3.82247 5.45704,3.61523 0.41442,-0.0691 1.51884,-0.62245 2.46289,-1.24414 0.94401,-0.59864 2.27957,-1.35928 2.94726,-1.68164 l 1.2207,-0.57422 -0.0918,-3.10937 c -0.11513,-3.47679 -0.46047,-4.58114 -1.63477,-5.29492 -0.36839,-0.23025 -1.93345,-0.85324 -3.45312,-1.38281 -4.69712,-1.65784 -7.48475,-3.22306 -8.70508,-4.88086 -1.22033,-1.70385 -0.64473,-1.84264 1.19726,-0.25391 1.58879,1.35848 3.89217,2.83227 5.50391,3.5 0.99009,0.41445 1.5201,0.50814 2.5332,0.41601 2.07228,-0.1842 4.51271,-1.65819 5.54883,-3.29296 0.43767,-0.71378 0.48442,-1.03729 0.36914,-2.46485 -0.16116,-2.41764 -0.69097,-3.84382 -1.86523,-5.15625 -1.40455,-1.56573 -3.82227,-2.71828 -3.82227,-1.82031 0,0.57564 -1.77305,2.57969 -2.625,2.99414 -1.56567,0.73682 -3.15506,-0.16097 -3.96093,-2.2793 -0.52959,-1.42755 -0.18343,-2.53266 1.24414,-4.02929 1.28938,-1.31242 2.16348,-1.61328 4.85742,-1.61328 2.4867,0 3.47708,0.46064 5.6875,2.625 2.62488,2.62487 4.19132,6.37913 4.39844,10.7539 0.27628,5.13461 -0.92065,9.73856 -4.5586,17.49805 -4.46691,9.60148 -6.30998,15.01345 -7.80664,23.07226 -0.85206,4.48991 -0.85163,6.14698 -0.0918,9.55469 0.73682,3.24656 1.56485,5.57276 3.22266,8.98047 1.08219,2.23344 1.49648,2.83242 3.1543,4.49023 2.11831,2.11834 3.79931,3.08474 6.76953,3.89063 2.55579,0.69076 9.09516,0.87445 11.0293,0.29883 3.08538,-0.89799 6.0101,-2.80948 8.86523,-5.80274 2.83208,-2.99327 3.93752,-5.59513 4.375,-10.36132 0.32236,-3.56892 0.0454,-7.55079 -0.69141,-9.62305 -0.48355,-1.35848 -2.39351,-4.76622 -4.62695,-8.28906 -0.71376,-1.15126 -1.49834,-2.44143 -1.72851,-2.87891 -0.23027,-0.43748 -1.24318,-2.09486 -2.2793,-3.68359 -1.0131,-1.58875 -2.80924,-4.74395 -3.9375,-7.02344 -1.26637,-2.50976 -2.23272,-4.16674 -2.46289,-4.21289 -0.4605,-0.0921 -3.42978,2.80803 -3.98242,3.86719 -0.4605,0.921 -1.01444,3.80032 -1.03711,5.41211 0,1.86503 1.15056,3.22388 4.21289,4.92773 4.28266,2.41765 9.76365,7.71254 9.32617,9.00195 -0.046,0.11513 -0.98938,-0.62164 -2.14063,-1.63476 -5.41092,-4.85829 -9.21193,-6.81468 -12.75781,-6.60742 -1.77294,0.0921 -2.30117,0.41436 -3.95898,2.39453 -1.81898,2.16436 -1.79684,2.09387 -0.92188,4.71875 1.19732,3.47678 1.84227,3.8929 6.88477,4.23828 3.70703,0.25327 6.67745,1.45004 8.84179,3.56836 1.08227,1.03612 1.33594,1.42674 1.33594,2.02539 0,0.80589 -0.346,0.99153 -0.57617,0.30078 -0.5526,-1.74992 -4.71946,-3.84623 -8.79492,-4.42188 -3.03931,-0.41444 -4.37581,0.41412 -6.05664,3.79883 -1.08219,2.11831 -1.17432,3.31651 -0.4375,5.50391 0.80587,2.3946 1.79704,3.82138 3.22461,4.53515 0.59864,0.32236 3.5458,0.92188 4.46679,0.92188 0.0461,0 0.0223,-1.174 -0.0469,-2.60156 -0.13814,-2.5558 -0.11427,-2.60263 0.48437,-3.31641 1.56571,-1.86504 5.01959,-1.2431 6.33203,1.10547 1.38152,2.46368 -0.20749,5.61788 -3.61523,7.18359 -0.89798,0.41445 -1.49692,0.50586 -3.61523,0.50586 -2.14133,0 -2.71615,-0.0918 -3.66016,-0.52929 -2.55579,-1.15126 -5.34239,-4.00508 -6.79297,-6.90625 -1.4736,-2.94722 -2.30271,-8.65779 -1.86523,-12.7793 0.39144,-3.52285 1.33525,-6.44796 3.91406,-12.1582 0.64471,-1.45059 1.38115,-3.20028 1.61133,-3.91407 0.23025,-0.69074 1.31195,-3.13066 2.37109,-5.41015 2.53278,-5.36486 3.47772,-7.75962 4.30664,-10.91407 1.24335,-4.76621 1.26723,-5.45639 0.48438,-9.34765 -2.5558,-12.59476 -7.18531,-17.91505 -16.44141,-18.95117 -1.25486,-0.13816 -2.15259,-0.20704 -2.98437,-0.20704 z m 43.48046,71.82813 c -0.48474,-0.003 -0.95262,0.0885 -1.30664,0.28711 -1.98028,1.12823 -1.84221,4.23729 0.20704,4.83594 0.94401,0.25328 2.55576,-1.4e-4 3.26953,-0.55274 0.48217,-0.35072 0.55923,-0.64716 0.5664,-1.70312 -0.69809,-0.90887 -1.38311,-1.82759 -2.05664,-2.75586 -0.22764,-0.0428 -0.44967,-0.10992 -0.67969,-0.11133 z m 198.70118,6.16211 c -3.18409,3.84936 -6.59145,7.50283 -10.19336,10.95117 1.98321,-0.99724 2.64589,-1.4849 4.74804,-3.56445 0.40865,-0.39835 0.73835,-0.76736 1.09375,-1.14453 1.45423,-1.96226 2.86289,-3.95972 4.22071,-5.9961 0.0429,-0.0809 0.0876,-0.16345 0.13086,-0.24609 z m -191.97461,2.60156 c -0.76271,0.003 -1.5974,0.0992 -2.78321,0.29492 -3.9603,0.66774 -7.5757,2.16466 -8.75,3.61524 -0.3914,0.48353 -0.89678,0.875 -1.12695,0.875 -1.22033,0 -4.44548,4.25994 -5.87305,7.75976 -0.80568,1.95714 -0.85114,2.16515 -0.94336,5.38868 -0.18421,6.51613 0.69099,9.23182 4.375,13.56054 2.83212,3.31563 5.84894,5.2501 10.9375,7 3.20051,1.10522 4.6731,1.33518 8.44922,1.3125 3.5689,0 5.96322,-0.34555 10.01563,-1.42773 5.71026,-1.54269 9.62521,-3.13158 13.5625,-5.57227 2.73019,-1.6889 5.73301,-3.12979 8.80859,-4.24609 -2.27871,-1.21438 -4.51665,-2.49365 -6.70898,-3.8418 -1.0909,0.42977 -2.08747,0.79972 -3.32032,1.31836 -5.43394,2.27949 -7.18394,2.8795 -12.54882,4.33008 -5.11159,1.35855 -8.17316,1.70329 -13.26172,1.49609 -4.14456,-0.16119 -5.27243,-0.46039 -7.50586,-1.95703 -2.57881,-1.72688 -4.12199,-3.50065 -5.48047,-6.26367 -1.15128,-2.34857 -1.15039,-2.37048 -1.15039,-4.62695 0,-2.83209 0.25294,-3.91382 1.28906,-5.31836 1.0131,-1.40454 2.00355,-2.00391 3.29297,-2.00391 0.87492,0 1.12803,0.11518 1.8418,0.875 1.86467,1.95715 1.86345,4.92814 0.0215,7.02344 -1.33549,1.54268 -1.47225,1.86498 -1.01172,2.83203 0.48352,1.0131 2.78533,2.97011 4.21289,3.5918 1.4736,0.62168 3.29312,0.96546 4.28321,0.78125 1.05917,-0.20723 2.32447,-1.31235 2.66992,-2.39453 0.87496,-2.6479 -0.34602,-8.08008 -2.76367,-12.22461 -0.59864,-1.01311 -0.41361,-1.28976 0.48437,-0.78321 1.95712,1.12824 4.0983,6.03134 5.22656,11.92578 0.27629,1.40453 0.69171,2.78702 0.92188,3.10938 0.23025,0.32236 1.17286,0.89804 2.20898,1.3125 0.99009,0.41444 2.02645,0.94438 2.30274,1.2207 0.27628,0.25326 0.62219,0.45899 0.7832,0.45899 0.41446,0 2.90191,-2.41673 4.07617,-3.98242 0.87481,-1.17432 1.01172,-1.51886 1.01172,-2.4629 0,-1.6578 -0.98892,-4.51364 -2.11719,-6.14843 -1.58872,-2.2795 -4.30578,-5.29656 -6.33203,-7.02344 -1.05913,-0.89799 -1.91211,-1.65751 -1.91211,-1.72656 0,-0.26797 0.94227,0.10659 1.97461,0.64062 -2.88255,-2.73943 -5.63372,-5.61308 -8.24609,-8.61328 -0.29111,-0.0274 -0.61763,-0.10659 -0.91406,-0.10547 z m -20.25977,8.58399 c -0.0461,-0.023 -1.12896,0.34695 -2.4414,0.85351 -3.29264,1.24337 -5.34149,1.47275 -10.01563,1.15039 -2.0262,-0.16116 -3.75272,-0.22921 -3.79883,-0.16015 -0.23025,0.23026 0.5755,1.65643 1.95703,3.52148 0.80587,1.05915 1.45117,2.1647 1.45117,2.41797 0,0.64472 2.9013,3.40803 4.25977,4.05273 1.7269,0.78286 2.78498,1.56656 3.42969,2.55664 0.39144,0.59866 0.89948,0.98931 1.61328,1.26563 1.81912,0.69074 1.77229,0.87489 1.70312,-5.45703 l -0.0469,-5.5957 0.96875,-2.2793 c 0.52959,-1.26639 0.9426,-2.30312 0.91992,-2.32617 z m 200.73438,3.85156 c -0.14609,-6.3e-4 -0.34962,0.004 -0.59571,0.0137 -0.49216,0.0202 -1.15535,0.0615 -1.86914,0.11914 -0.26943,0.0219 -0.58696,-0.003 -0.86719,0.01 -3.56622,3.09446 -7.30443,5.99086 -11.19726,8.67383 -0.0816,0.88017 -0.0694,1.34115 -0.27734,2.94335 -0.23025,1.79595 0.89846,1.70436 3.4082,-0.29882 0.45365,-0.36514 0.94412,-0.63927 1.48242,-1.00782 3.50013,-3.31366 6.83776,-6.80038 10,-10.44726 -0.0354,-10e-4 -0.0353,-0.006 -0.084,-0.006 z m -165.08008,1.82617 c 0.57178,0.69858 1.01858,1.15503 1.73828,2.10547 3.75311,4.97344 4.07582,5.22687 7,5.57227 0.46513,0.0512 0.96111,-0.007 1.44922,-0.0352 -3.52809,-2.37641 -6.92617,-4.92951 -10.1875,-7.64258 z m 148.24804,8.54102 c -3.01894,1.98439 -6.12555,3.84027 -9.31445,5.5625 -0.69114,0.66883 -1.43561,1.31225 -2.29101,1.88672 -2.17046,1.46304 -4.23946,2.2487 -7.03516,2.66015 -5.06466,2.21261 -10.29972,4.09618 -15.68164,5.625 3.35917,1.09773 6.15404,1.36133 11.06641,1.36133 5.44107,-0.0217 7.87296,-0.38131 10.86328,-1.60352 2.71706,-1.81279 5.37585,-3.7083 7.96093,-5.69726 0.56818,-0.62022 1.10689,-1.24706 1.5293,-1.86328 1.3895,-2.03182 2.4078,-4.97185 2.90234,-7.93164 z m -128.36523,9.17578 c -0.57562,-0.0921 -1.26707,-0.0697 -1.56641,0.0684 -0.62169,0.2763 -3.15327,3.52391 -3.75195,4.85937 -0.57555,1.24336 -0.5537,2.94767 0.0449,4.16797 1.03616,2.16438 7.32331,7.3901 11.74414,9.76172 2.90117,1.56582 3.15362,1.98055 1.15039,1.77344 -3.36166,-0.36843 -7.20693,-2.6708 -12.11132,-7.29883 -4.76621,-4.51295 -5.64,-5.20493 -7.02149,-5.52735 -2.87815,-0.69075 -8.35949,0.85293 -10.98437,3.10938 -1.54262,1.31244 -2.62401,4.0293 -1.58789,4.0293 1.54269,0.023 4.83417,0.62248 6.69921,1.24414 1.26643,0.43752 5.01989,2.02528 8.3125,3.54492 7.36806,3.40773 12.8954,5.61796 15.88868,6.42383 2.00318,0.52951 2.73935,0.59961 5.96289,0.59961 2.02621,0 4.35076,-0.11634 5.17969,-0.27735 5.52604,-1.05917 11.8593,-6.10216 14.6914,-11.69726 0.2763,-0.52955 0.78311,-1.86396 1.10547,-2.99219 0.35587,-1.15658 0.48504,-2.0554 0.55664,-3.23438 -2.22673,-0.46918 -4.43169,-0.99831 -6.61328,-1.58398 -0.0411,1.14579 -0.14904,1.76536 -0.57617,2.58398 -0.80588,1.54268 -2.27876,2.78713 -3.77539,3.22461 -1.54269,0.43748 -2.25582,0.25354 -3.45313,-0.96679 -2.41764,-2.41765 -1.72826,-5.2963 1.44922,-5.91797 0.57635,-0.11866 0.9026,-0.25798 1.125,-0.44922 -4.01072,-1.26736 -7.93421,-2.73239 -11.75976,-4.38086 -1.03973,1.31145 -1.38477,2.47298 -1.38477,4.7832 0,2.14136 0.0479,2.41814 0.76172,3.84571 1.08219,2.21042 3.70549,4.95101 5.80078,6.0332 1.79596,0.94413 2.09522,1.42706 0.75977,1.17383 -1.47364,-0.27632 -3.59092,-1.51981 -5.17969,-3.0625 -2.62485,-2.53278 -4.14441,-5.57232 -4.4668,-8.95703 -0.18418,-2.09529 -0.43741,-2.8776 -1.19727,-3.56836 -0.80587,-0.75983 -1.88783,-1.10585 -3.47656,-1.12891 -0.71376,0 -1.75055,-0.0915 -2.32617,-0.18359 z m 89.56445,7.74218 c -3.45835,0.84294 -6.97184,1.53939 -10.53515,2.08399 -0.82996,0.76976 -1.54102,1.40812 -2.93164,2.81445 -4.44386,4.48993 -5.98668,5.68825 -8.8418,6.93164 -1.91108,0.82897 -3.70703,1.33488 -3.70703,1.0586 0,-0.0691 0.96676,-0.71355 2.16406,-1.4043 2.87815,-1.68083 5.0883,-3.50094 7.6211,-6.17188 0.99463,-1.05093 1.70577,-1.9334 2.23632,-2.75 -4.19898,0.52045 -8.46189,0.82752 -12.77929,0.91407 -0.2802,0.62147 -0.61286,1.19424 -1.08399,1.88281 -2.04924,3.01629 -5.20302,5.22665 -7.16015,5.01953 -1.19732,-0.11512 -1.0357,-0.57568 0.46093,-1.3125 2.78827,-1.33744 5.07072,-3.43448 6.08594,-5.56445 -0.2714,0.002 -0.54069,0.0117 -0.8125,0.0117 -2.27633,10e-6 -4.53858,-0.0657 -6.78516,-0.18555 -1.38069,1.4196 -4.34177,1.83522 -6.04101,0.46484 -0.40854,-0.33487 -0.70061,-0.67257 -0.94531,-1.03515 -2.35496,-0.25744 -4.68988,-0.58268 -7.00391,-0.96875 0.35113,2.71822 1.50122,6.26246 2.97461,8.75 0.85193,1.47364 3.20187,3.91589 4.76758,4.99804 2.00319,1.35852 4.30562,2.23192 6.53906,2.53125 2.78604,0.34538 10.0622,-0.092 12.22656,-0.75976 3.77613,-1.17426 5.27292,-1.75019 9.2793,-3.61524 10.59157,-4.85831 13.00755,-5.66317 18.11914,-5.93945 1.56571,-0.0922 2.90119,-0.23004 2.94727,-0.32226 0.27629,-0.43748 -1.4492,-3.15553 -3.08399,-4.85938 -1.37505,-1.44557 -2.12241,-2.01356 -3.71094,-2.57227 z m -53.34375,6.13868 c -0.17161,0.0173 -0.30078,0.22853 -0.30078,0.55664 0,0.18421 -0.36957,1.28821 -0.83008,2.43945 -0.43747,1.15124 -0.92045,2.37173 -1.05859,2.74023 -0.36841,0.94404 -3.68496,4.21403 -6.37891,6.24024 -2.16435,1.6348 -2.34732,1.84167 -2.00195,2.16406 0.48354,0.50646 4.1447,0.66875 5.57227,0.27735 0.96705,-0.2764 1.08061,-0.25347 1.65625,0.20703 1.88806,1.51967 2.67172,1.91019 3.7539,1.79492 1.26639,-0.11513 2.44121,-0.87424 2.64844,-1.70313 l 0.16016,-0.57617 2.4414,0.16211 c 1.98017,0.13833 2.6237,0.0904 3.31446,-0.20898 0.4605,-0.18422 0.85351,-0.45971 0.85351,-0.59766 0,-0.13814 -0.94444,-1.31218 -2.0957,-2.60156 -2.30252,-2.55579 -3.47761,-4.21307 -5.82617,-8.15039 -0.82891,-1.40455 -1.61144,-2.62613 -1.72657,-2.69532 -0.0633,-0.0403 -0.12443,-0.0546 -0.18164,-0.0488 z"
         transform="scale(0.26458334)" />
    </g>
  </g>
</svg>
